<svg width="32" height="32" viewBox="0 0 32 32" fill="none" xmlns="http://www.w3.org/2000/svg">
<path fill-rule="evenodd" clip-rule="evenodd" d="M31 9.92016C31 7.38702 28.9465 5.3335 26.4133 5.3335H5.58667C3.05352 5.3335 1 7.38702 1 9.92016V22.0802C1 23.2966 1.48324 24.4633 2.3434 25.3234C3.20357 26.1836 4.37021 26.6668 5.58667 26.6668H26.4133C28.9465 26.6668 31 24.6133 31 22.0802V9.92016ZM12.6667 21.2535V9.70683L21.6933 15.4802L12.6667 21.2535Z" fill="black"/>
<path d="M5.58667 5.3335V6.0835V5.3335ZM12.6667 21.2535H11.9167C11.9167 21.5275 12.0661 21.7798 12.3065 21.9114C12.5469 22.043 12.8399 22.033 13.0708 21.8853L12.6667 21.2535ZM12.6667 9.70683L13.0708 9.07501C12.8399 8.92735 12.5469 8.91736 12.3065 9.04896C12.0661 9.18056 11.9167 9.43278 11.9167 9.70683H12.6667ZM21.6933 15.4802L22.0974 16.112C22.3129 15.9741 22.4433 15.736 22.4433 15.4802C22.4433 15.2243 22.3129 14.9862 22.0974 14.8483L21.6933 15.4802ZM31.75 9.92016C31.75 6.9728 29.3607 4.5835 26.4133 4.5835V6.0835C28.5323 6.0835 30.25 7.80123 30.25 9.92016H31.75ZM26.4133 4.5835H5.58667V6.0835H26.4133V4.5835ZM5.58667 4.5835C2.63931 4.5835 0.25 6.9728 0.25 9.92016H1.75C1.75 7.80123 3.46773 6.0835 5.58667 6.0835V4.5835ZM0.25 9.92016V22.0802H1.75V9.92016H0.25ZM0.25 22.0802C0.25 23.4955 0.812254 24.8529 1.81307 25.8538L2.87373 24.7931C2.15422 24.0736 1.75 23.0977 1.75 22.0802H0.25ZM1.81307 25.8538C2.81389 26.8546 4.17129 27.4168 5.58667 27.4168V25.9168C4.56912 25.9168 3.59325 25.5126 2.87373 24.7931L1.81307 25.8538ZM5.58667 27.4168H26.4133V25.9168H5.58667V27.4168ZM26.4133 27.4168C29.3607 27.4168 31.75 25.0275 31.75 22.0802H30.25C30.25 24.1991 28.5323 25.9168 26.4133 25.9168V27.4168ZM31.75 22.0802V9.92016H30.25V22.0802H31.75ZM13.4167 21.2535V9.70683H11.9167V21.2535H13.4167ZM12.2626 10.3387L21.2892 16.112L22.0974 14.8483L13.0708 9.07501L12.2626 10.3387ZM21.2892 14.8483L12.2626 20.6217L13.0708 21.8853L22.0974 16.112L21.2892 14.8483Z" fill="black"/>
</svg>
